<svg xmlns="http://www.w3.org/2000/svg" xmlns:xlink="http://www.w3.org/1999/xlink" width="380" zoomAndPan="magnify" viewBox="0 0 285 72" height="96" preserveAspectRatio="xMidYMid meet" version="1.0"><defs><filter x="0%" y="0%" width="100%" height="100%" id="435fad479f"><feColorMatrix values="0 0 0 0 1 0 0 0 0 1 0 0 0 0 1 0 0 0 1 0" color-interpolation-filters="sRGB"/></filter><linearGradient x1="190" gradientTransform="matrix(0.75, 0, 0, 0.75, 0, 0.000002)" y1="-0" x2="190" gradientUnits="userSpaceOnUse" y2="95.999996" id="b082013257"><stop stop-opacity="1" stop-color="rgb(26.269531%, 62.348938%, 10.978699%)" offset="0"/><stop stop-opacity="1" stop-color="rgb(26.167297%, 62.228394%, 11.013794%)" offset="0.0078125"/><stop stop-opacity="1" stop-color="rgb(25.965881%, 61.985779%, 11.08551%)" offset="0.015625"/><stop stop-opacity="1" stop-color="rgb(25.762939%, 61.743164%, 11.155701%)" offset="0.0234375"/><stop stop-opacity="1" stop-color="rgb(25.561523%, 61.502075%, 11.225891%)" offset="0.03125"/><stop stop-opacity="1" stop-color="rgb(25.358582%, 61.25946%, 11.296082%)" offset="0.0390625"/><stop stop-opacity="1" stop-color="rgb(25.157166%, 61.016846%, 11.366272%)" offset="0.046875"/><stop stop-opacity="1" stop-color="rgb(24.954224%, 60.775757%, 11.436462%)" offset="0.0546875"/><stop stop-opacity="1" stop-color="rgb(24.752808%, 60.533142%, 11.508179%)" offset="0.0625"/><stop stop-opacity="1" stop-color="rgb(24.549866%, 60.292053%, 11.578369%)" offset="0.0703125"/><stop stop-opacity="1" stop-color="rgb(24.34845%, 60.049438%, 11.64856%)" offset="0.078125"/><stop stop-opacity="1" stop-color="rgb(24.145508%, 59.806824%, 11.71875%)" offset="0.0859375"/><stop stop-opacity="1" stop-color="rgb(23.944092%, 59.565735%, 11.78894%)" offset="0.09375"/><stop stop-opacity="1" stop-color="rgb(23.74115%, 59.32312%, 11.860657%)" offset="0.101562"/><stop stop-opacity="1" stop-color="rgb(23.539734%, 59.082031%, 11.930847%)" offset="0.109375"/><stop stop-opacity="1" stop-color="rgb(23.336792%, 58.839417%, 12.001038%)" offset="0.117188"/><stop stop-opacity="1" stop-color="rgb(23.135376%, 58.596802%, 12.071228%)" offset="0.125"/><stop stop-opacity="1" stop-color="rgb(22.932434%, 58.355713%, 12.141418%)" offset="0.132812"/><stop stop-opacity="1" stop-color="rgb(22.731018%, 58.113098%, 12.211609%)" offset="0.140625"/><stop stop-opacity="1" stop-color="rgb(22.528076%, 57.870483%, 12.283325%)" offset="0.148438"/><stop stop-opacity="1" stop-color="rgb(22.32666%, 57.629395%, 12.353516%)" offset="0.15625"/><stop stop-opacity="1" stop-color="rgb(22.123718%, 57.38678%, 12.423706%)" offset="0.164062"/><stop stop-opacity="1" stop-color="rgb(21.922302%, 57.145691%, 12.493896%)" offset="0.171875"/><stop stop-opacity="1" stop-color="rgb(21.71936%, 56.903076%, 12.564087%)" offset="0.179688"/><stop stop-opacity="1" stop-color="rgb(21.517944%, 56.660461%, 12.635803%)" offset="0.1875"/><stop stop-opacity="1" stop-color="rgb(21.315002%, 56.419373%, 12.705994%)" offset="0.195312"/><stop stop-opacity="1" stop-color="rgb(21.113586%, 56.176758%, 12.776184%)" offset="0.203125"/><stop stop-opacity="1" stop-color="rgb(20.910645%, 55.935669%, 12.846375%)" offset="0.210938"/><stop stop-opacity="1" stop-color="rgb(20.709229%, 55.693054%, 12.916565%)" offset="0.21875"/><stop stop-opacity="1" stop-color="rgb(20.506287%, 55.450439%, 12.986755%)" offset="0.226562"/><stop stop-opacity="1" stop-color="rgb(20.304871%, 55.209351%, 13.058472%)" offset="0.234375"/><stop stop-opacity="1" stop-color="rgb(20.101929%, 54.966736%, 13.128662%)" offset="0.242188"/><stop stop-opacity="1" stop-color="rgb(19.900513%, 54.724121%, 13.198853%)" offset="0.25"/><stop stop-opacity="1" stop-color="rgb(19.697571%, 54.483032%, 13.269043%)" offset="0.257812"/><stop stop-opacity="1" stop-color="rgb(19.496155%, 54.240417%, 13.339233%)" offset="0.265625"/><stop stop-opacity="1" stop-color="rgb(19.293213%, 53.999329%, 13.41095%)" offset="0.273438"/><stop stop-opacity="1" stop-color="rgb(19.091797%, 53.756714%, 13.48114%)" offset="0.28125"/><stop stop-opacity="1" stop-color="rgb(18.888855%, 53.514099%, 13.551331%)" offset="0.289062"/><stop stop-opacity="1" stop-color="rgb(18.687439%, 53.27301%, 13.621521%)" offset="0.296875"/><stop stop-opacity="1" stop-color="rgb(18.484497%, 53.030396%, 13.691711%)" offset="0.304688"/><stop stop-opacity="1" stop-color="rgb(18.283081%, 52.787781%, 13.761902%)" offset="0.3125"/><stop stop-opacity="1" stop-color="rgb(18.080139%, 52.546692%, 13.833618%)" offset="0.320312"/><stop stop-opacity="1" stop-color="rgb(17.878723%, 52.304077%, 13.903809%)" offset="0.328125"/><stop stop-opacity="1" stop-color="rgb(17.675781%, 52.062988%, 13.973999%)" offset="0.335938"/><stop stop-opacity="1" stop-color="rgb(17.474365%, 51.820374%, 14.044189%)" offset="0.34375"/><stop stop-opacity="1" stop-color="rgb(17.271423%, 51.577759%, 14.11438%)" offset="0.351562"/><stop stop-opacity="1" stop-color="rgb(17.070007%, 51.33667%, 14.186096%)" offset="0.359375"/><stop stop-opacity="1" stop-color="rgb(16.867065%, 51.094055%, 14.256287%)" offset="0.367188"/><stop stop-opacity="1" stop-color="rgb(16.665649%, 50.852966%, 14.326477%)" offset="0.375"/><stop stop-opacity="1" stop-color="rgb(16.462708%, 50.610352%, 14.396667%)" offset="0.382812"/><stop stop-opacity="1" stop-color="rgb(16.261292%, 50.367737%, 14.466858%)" offset="0.390625"/><stop stop-opacity="1" stop-color="rgb(16.05835%, 50.126648%, 14.537048%)" offset="0.398438"/><stop stop-opacity="1" stop-color="rgb(15.856934%, 49.884033%, 14.608765%)" offset="0.40625"/><stop stop-opacity="1" stop-color="rgb(15.653992%, 49.641418%, 14.678955%)" offset="0.414062"/><stop stop-opacity="1" stop-color="rgb(15.452576%, 49.40033%, 14.749146%)" offset="0.421875"/><stop stop-opacity="1" stop-color="rgb(15.249634%, 49.157715%, 14.819336%)" offset="0.429688"/><stop stop-opacity="1" stop-color="rgb(15.046692%, 48.916626%, 14.889526%)" offset="0.4375"/><stop stop-opacity="1" stop-color="rgb(14.845276%, 48.674011%, 14.961243%)" offset="0.445312"/><stop stop-opacity="1" stop-color="rgb(14.642334%, 48.431396%, 15.031433%)" offset="0.453125"/><stop stop-opacity="1" stop-color="rgb(14.440918%, 48.190308%, 15.101624%)" offset="0.460938"/><stop stop-opacity="1" stop-color="rgb(14.237976%, 47.947693%, 15.171814%)" offset="0.46875"/><stop stop-opacity="1" stop-color="rgb(14.03656%, 47.706604%, 15.242004%)" offset="0.476562"/><stop stop-opacity="1" stop-color="rgb(13.833618%, 47.463989%, 15.312195%)" offset="0.484375"/><stop stop-opacity="1" stop-color="rgb(13.632202%, 47.221375%, 15.383911%)" offset="0.492188"/><stop stop-opacity="1" stop-color="rgb(13.42926%, 46.980286%, 15.454102%)" offset="0.5"/><stop stop-opacity="1" stop-color="rgb(13.227844%, 46.737671%, 15.524292%)" offset="0.507812"/><stop stop-opacity="1" stop-color="rgb(13.024902%, 46.495056%, 15.594482%)" offset="0.515625"/><stop stop-opacity="1" stop-color="rgb(12.823486%, 46.253967%, 15.664673%)" offset="0.523438"/><stop stop-opacity="1" stop-color="rgb(12.620544%, 46.011353%, 15.736389%)" offset="0.53125"/><stop stop-opacity="1" stop-color="rgb(12.419128%, 45.770264%, 15.80658%)" offset="0.539062"/><stop stop-opacity="1" stop-color="rgb(12.216187%, 45.527649%, 15.87677%)" offset="0.546875"/><stop stop-opacity="1" stop-color="rgb(12.014771%, 45.285034%, 15.94696%)" offset="0.554688"/><stop stop-opacity="1" stop-color="rgb(11.811829%, 45.043945%, 16.017151%)" offset="0.5625"/><stop stop-opacity="1" stop-color="rgb(11.610413%, 44.801331%, 16.087341%)" offset="0.570312"/><stop stop-opacity="1" stop-color="rgb(11.407471%, 44.558716%, 16.159058%)" offset="0.578125"/><stop stop-opacity="1" stop-color="rgb(11.206055%, 44.317627%, 16.229248%)" offset="0.585938"/><stop stop-opacity="1" stop-color="rgb(11.003113%, 44.075012%, 16.299438%)" offset="0.59375"/><stop stop-opacity="1" stop-color="rgb(10.801697%, 43.833923%, 16.369629%)" offset="0.601562"/><stop stop-opacity="1" stop-color="rgb(10.598755%, 43.591309%, 16.439819%)" offset="0.609375"/><stop stop-opacity="1" stop-color="rgb(10.397339%, 43.348694%, 16.511536%)" offset="0.617188"/><stop stop-opacity="1" stop-color="rgb(10.194397%, 43.107605%, 16.581726%)" offset="0.625"/><stop stop-opacity="1" stop-color="rgb(9.992981%, 42.86499%, 16.651917%)" offset="0.632812"/><stop stop-opacity="1" stop-color="rgb(9.790039%, 42.623901%, 16.722107%)" offset="0.640625"/><stop stop-opacity="1" stop-color="rgb(9.588623%, 42.381287%, 16.792297%)" offset="0.648438"/><stop stop-opacity="1" stop-color="rgb(9.385681%, 42.138672%, 16.862488%)" offset="0.65625"/><stop stop-opacity="1" stop-color="rgb(9.184265%, 41.897583%, 16.934204%)" offset="0.664062"/><stop stop-opacity="1" stop-color="rgb(8.981323%, 41.654968%, 17.004395%)" offset="0.671875"/><stop stop-opacity="1" stop-color="rgb(8.779907%, 41.412354%, 17.074585%)" offset="0.679688"/><stop stop-opacity="1" stop-color="rgb(8.576965%, 41.171265%, 17.144775%)" offset="0.6875"/><stop stop-opacity="1" stop-color="rgb(8.375549%, 40.92865%, 17.214966%)" offset="0.695312"/><stop stop-opacity="1" stop-color="rgb(8.172607%, 40.687561%, 17.286682%)" offset="0.703125"/><stop stop-opacity="1" stop-color="rgb(7.971191%, 40.444946%, 17.356873%)" offset="0.710938"/><stop stop-opacity="1" stop-color="rgb(7.76825%, 40.202332%, 17.427063%)" offset="0.71875"/><stop stop-opacity="1" stop-color="rgb(7.566833%, 39.961243%, 17.497253%)" offset="0.726562"/><stop stop-opacity="1" stop-color="rgb(7.363892%, 39.718628%, 17.567444%)" offset="0.734375"/><stop stop-opacity="1" stop-color="rgb(7.162476%, 39.477539%, 17.637634%)" offset="0.742188"/><stop stop-opacity="1" stop-color="rgb(6.959534%, 39.234924%, 17.709351%)" offset="0.75"/><stop stop-opacity="1" stop-color="rgb(6.758118%, 38.99231%, 17.779541%)" offset="0.757812"/><stop stop-opacity="1" stop-color="rgb(6.555176%, 38.751221%, 17.849731%)" offset="0.765625"/><stop stop-opacity="1" stop-color="rgb(6.35376%, 38.508606%, 17.919922%)" offset="0.773438"/><stop stop-opacity="1" stop-color="rgb(6.150818%, 38.265991%, 17.990112%)" offset="0.78125"/><stop stop-opacity="1" stop-color="rgb(5.949402%, 38.024902%, 18.061829%)" offset="0.789062"/><stop stop-opacity="1" stop-color="rgb(5.74646%, 37.782288%, 18.132019%)" offset="0.796875"/><stop stop-opacity="1" stop-color="rgb(5.545044%, 37.541199%, 18.202209%)" offset="0.804688"/><stop stop-opacity="1" stop-color="rgb(5.342102%, 37.298584%, 18.2724%)" offset="0.8125"/><stop stop-opacity="1" stop-color="rgb(5.140686%, 37.055969%, 18.34259%)" offset="0.820312"/><stop stop-opacity="1" stop-color="rgb(4.937744%, 36.81488%, 18.414307%)" offset="0.828125"/><stop stop-opacity="1" stop-color="rgb(4.736328%, 36.572266%, 18.484497%)" offset="0.835938"/><stop stop-opacity="1" stop-color="rgb(4.533386%, 36.329651%, 18.554688%)" offset="0.84375"/><stop stop-opacity="1" stop-color="rgb(4.33197%, 36.088562%, 18.624878%)" offset="0.851562"/><stop stop-opacity="1" stop-color="rgb(4.129028%, 35.845947%, 18.695068%)" offset="0.859375"/><stop stop-opacity="1" stop-color="rgb(3.927612%, 35.604858%, 18.765259%)" offset="0.867188"/><stop stop-opacity="1" stop-color="rgb(3.72467%, 35.362244%, 18.836975%)" offset="0.875"/><stop stop-opacity="1" stop-color="rgb(3.523254%, 35.119629%, 18.907166%)" offset="0.882812"/><stop stop-opacity="1" stop-color="rgb(3.320312%, 34.87854%, 18.977356%)" offset="0.890625"/><stop stop-opacity="1" stop-color="rgb(3.118896%, 34.635925%, 19.047546%)" offset="0.898438"/><stop stop-opacity="1" stop-color="rgb(2.915955%, 34.394836%, 19.117737%)" offset="0.90625"/><stop stop-opacity="1" stop-color="rgb(2.714539%, 34.152222%, 19.189453%)" offset="0.914062"/><stop stop-opacity="1" stop-color="rgb(2.511597%, 33.909607%, 19.259644%)" offset="0.921875"/><stop stop-opacity="1" stop-color="rgb(2.310181%, 33.668518%, 19.329834%)" offset="0.929688"/><stop stop-opacity="1" stop-color="rgb(2.107239%, 33.425903%, 19.400024%)" offset="0.9375"/><stop stop-opacity="1" stop-color="rgb(1.905823%, 33.183289%, 19.470215%)" offset="0.945312"/><stop stop-opacity="1" stop-color="rgb(1.702881%, 32.9422%, 19.540405%)" offset="0.953125"/><stop stop-opacity="1" stop-color="rgb(1.501465%, 32.699585%, 19.612122%)" offset="0.960938"/><stop stop-opacity="1" stop-color="rgb(1.298523%, 32.458496%, 19.682312%)" offset="0.96875"/><stop stop-opacity="1" stop-color="rgb(1.097107%, 32.215881%, 19.752502%)" offset="0.976562"/><stop stop-opacity="1" stop-color="rgb(0.894165%, 31.973267%, 19.822693%)" offset="0.984375"/><stop stop-opacity="1" stop-color="rgb(0.692749%, 31.732178%, 19.892883%)" offset="0.992188"/><stop stop-opacity="1" stop-color="rgb(0.489807%, 31.489563%, 19.9646%)" offset="1"/></linearGradient><mask id="88c43750c0"><g filter="url(#435fad479f)"><rect x="-28.5" width="342" fill="#000000" y="-7.2" height="86.4" fill-opacity="0.18"/></g></mask><clipPath id="f8a3fb49e1"><path d="M 59 56 L 85.175781 56 L 85.175781 69 L 59 69 Z M 59 56 " clip-rule="nonzero"/></clipPath><clipPath id="2a9a16c134"><path d="M 57 34 L 85.175781 34 L 85.175781 62 L 57 62 Z M 57 34 " clip-rule="nonzero"/></clipPath><clipPath id="a9f95b1f60"><path d="M 54 4 L 85.175781 4 L 85.175781 56 L 54 56 Z M 54 4 " clip-rule="nonzero"/></clipPath><clipPath id="912a5b956d"><path d="M 59 65 L 85.175781 65 L 85.175781 72 L 59 72 Z M 59 65 " clip-rule="nonzero"/></clipPath><clipPath id="e3a0fa8b26"><path d="M 58 45 L 85.175781 45 L 85.175781 65 L 58 65 Z M 58 45 " clip-rule="nonzero"/></clipPath><clipPath id="bf02f1b665"><path d="M 56 21 L 85.175781 21 L 85.175781 59 L 56 59 Z M 56 21 " clip-rule="nonzero"/></clipPath><clipPath id="4710ed450d"><path d="M 0 65 L 26 65 L 26 72 L 0 72 Z M 0 65 " clip-rule="nonzero"/></clipPath><clipPath id="55334507eb"><rect x="0" width="86" y="0" height="72"/></clipPath><mask id="1d06b0efb1"><g filter="url(#435fad479f)"><rect x="-28.5" width="342" fill="#000000" y="-7.2" height="86.4" fill-opacity="0.18"/></g></mask><clipPath id="3d8f543d82"><path d="M 60 56 L 86.355469 56 L 86.355469 69 L 60 69 Z M 60 56 " clip-rule="nonzero"/></clipPath><clipPath id="5a25e2b0bf"><path d="M 58 34 L 86.355469 34 L 86.355469 62 L 58 62 Z M 58 34 " clip-rule="nonzero"/></clipPath><clipPath id="2a28c99c55"><path d="M 56 4 L 86.355469 4 L 86.355469 56 L 56 56 Z M 56 4 " clip-rule="nonzero"/></clipPath><clipPath id="3f1d557244"><path d="M 60 65 L 86.355469 65 L 86.355469 72 L 60 72 Z M 60 65 " clip-rule="nonzero"/></clipPath><clipPath id="085af69aad"><path d="M 59 45 L 86.355469 45 L 86.355469 65 L 59 65 Z M 59 45 " clip-rule="nonzero"/></clipPath><clipPath id="3d444d768e"><path d="M 57 21 L 86.355469 21 L 86.355469 59 L 57 59 Z M 57 21 " clip-rule="nonzero"/></clipPath><clipPath id="18b5b2dd53"><path d="M 1 65 L 27 65 L 27 72 L 1 72 Z M 1 65 " clip-rule="nonzero"/></clipPath><clipPath id="c0f17cb444"><rect x="0" width="87" y="0" height="72"/></clipPath><mask id="94b4fdbcf9"><g filter="url(#435fad479f)"><rect x="-28.5" width="342" fill="#000000" y="-7.2" height="86.4" fill-opacity="0.18"/></g></mask><clipPath id="6159c0fa5e"><path d="M 59 56 L 85.535156 56 L 85.535156 69 L 59 69 Z M 59 56 " clip-rule="nonzero"/></clipPath><clipPath id="7169019c8b"><path d="M 57 34 L 85.535156 34 L 85.535156 62 L 57 62 Z M 57 34 " clip-rule="nonzero"/></clipPath><clipPath id="3a8da6399b"><path d="M 55 4 L 85.535156 4 L 85.535156 56 L 55 56 Z M 55 4 " clip-rule="nonzero"/></clipPath><clipPath id="b3fb1ac3e6"><path d="M 0.160156 4 L 31 4 L 31 56 L 0.160156 56 Z M 0.160156 4 " clip-rule="nonzero"/></clipPath><clipPath id="9cc80f8dcd"><path d="M 0.160156 34 L 28 34 L 28 62 L 0.160156 62 Z M 0.160156 34 " clip-rule="nonzero"/></clipPath><clipPath id="e7d56a29ba"><path d="M 0.160156 56 L 27 56 L 27 69 L 0.160156 69 Z M 0.160156 56 " clip-rule="nonzero"/></clipPath><clipPath id="65ae47b769"><path d="M 60 65 L 85.535156 65 L 85.535156 72 L 60 72 Z M 60 65 " clip-rule="nonzero"/></clipPath><clipPath id="cf334ce3f2"><path d="M 58 45 L 85.535156 45 L 85.535156 65 L 58 65 Z M 58 45 " clip-rule="nonzero"/></clipPath><clipPath id="34de82224a"><path d="M 56 21 L 85.535156 21 L 85.535156 59 L 56 59 Z M 56 21 " clip-rule="nonzero"/></clipPath><clipPath id="ff924b1f23"><path d="M 0.160156 21 L 30 21 L 30 59 L 0.160156 59 Z M 0.160156 21 " clip-rule="nonzero"/></clipPath><clipPath id="b20d16fe5a"><path d="M 0.160156 45 L 27 45 L 27 65 L 0.160156 65 Z M 0.160156 45 " clip-rule="nonzero"/></clipPath><clipPath id="c666c03140"><path d="M 0.160156 65 L 26 65 L 26 72 L 0.160156 72 Z M 0.160156 65 " clip-rule="nonzero"/></clipPath><clipPath id="fc7bda9015"><rect x="0" width="86" y="0" height="72"/></clipPath><mask id="1238620b19"><g filter="url(#435fad479f)"><rect x="-28.5" width="342" fill="#000000" y="-7.2" height="86.4" fill-opacity="0.18"/></g></mask><clipPath id="2fa87286f4"><path d="M 29 0 L 30 0 L 30 49 L 29 49 Z M 29 0 " clip-rule="nonzero"/></clipPath><clipPath id="480c049f51"><path d="M 14 0 L 30 0 L 30 52 L 14 52 Z M 14 0 " clip-rule="nonzero"/></clipPath><clipPath id="be4e03578a"><path d="M 0.359375 4 L 30 4 L 30 56 L 0.359375 56 Z M 0.359375 4 " clip-rule="nonzero"/></clipPath><clipPath id="a7ada80aa8"><path d="M 0.359375 34 L 29 34 L 29 62 L 0.359375 62 Z M 0.359375 34 " clip-rule="nonzero"/></clipPath><clipPath id="91e4a79f70"><path d="M 0.359375 56 L 27 56 L 27 69 L 0.359375 69 Z M 0.359375 56 " clip-rule="nonzero"/></clipPath><clipPath id="bba3a5f760"><path d="M 22 0 L 30 0 L 30 50 L 22 50 Z M 22 0 " clip-rule="nonzero"/></clipPath><clipPath id="f3771b32ad"><path d="M 5 0 L 30 0 L 30 54 L 5 54 Z M 5 0 " clip-rule="nonzero"/></clipPath><clipPath id="383feba062"><path d="M 0.359375 21 L 30 21 L 30 59 L 0.359375 59 Z M 0.359375 21 " clip-rule="nonzero"/></clipPath><clipPath id="312a777f4a"><path d="M 0.359375 45 L 28 45 L 28 65 L 0.359375 65 Z M 0.359375 45 " clip-rule="nonzero"/></clipPath><clipPath id="1a187da801"><path d="M 0.359375 65 L 26 65 L 26 72 L 0.359375 72 Z M 0.359375 65 " clip-rule="nonzero"/></clipPath><clipPath id="761b02d379"><rect x="0" width="30" y="0" height="72"/></clipPath></defs><rect x="-28.5" width="342" fill="#ffffff" y="-7.2" height="86.4" fill-opacity="1"/><rect x="-28.5" fill="url(#b082013257)" width="342" y="-7.2" height="86.4"/><g mask="url(#88c43750c0)"><g transform="matrix(1, 0, 0, 1, 0, -0.000000000000001479)"><g clip-path="url(#55334507eb)"><g clip-path="url(#f8a3fb49e1)"><path fill="#055134" d="M 85.175781 58.449219 L 85.175781 56.035156 L 59.359375 68.445312 Z M 85.175781 58.449219 " fill-opacity="1" fill-rule="nonzero"/></g><g clip-path="url(#2a9a16c134)"><path fill="#055134" d="M 85.175781 37.453125 L 85.175781 34.386719 L 57.625 61.675781 Z M 85.175781 37.453125 " fill-opacity="1" fill-rule="nonzero"/></g><g clip-path="url(#a9f95b1f60)"><path fill="#055134" d="M 85.175781 8.953125 L 85.175781 4.632812 L 54.863281 55.863281 Z M 85.175781 8.953125 " fill-opacity="1" fill-rule="nonzero"/></g><path fill="#055134" d="M 70.832031 0.00390625 L 68.4375 0.00390625 L 51.269531 51.40625 Z M 70.832031 0.00390625 " fill-opacity="1" fill-rule="nonzero"/><path fill="#055134" d="M 56.273438 0.00390625 L 54.007812 0.00390625 L 47.082031 48.601562 Z M 56.273438 0.00390625 " fill-opacity="1" fill-rule="nonzero"/><path fill="#055134" d="M 43.703125 0.00390625 L 41.472656 0.00390625 L 42.589844 47.644531 Z M 43.703125 0.00390625 " fill-opacity="1" fill-rule="nonzero"/><path fill="#055134" d="M 31.171875 0.00390625 L 28.902344 0.00390625 L 38.097656 48.601562 Z M 31.171875 0.00390625 " fill-opacity="1" fill-rule="nonzero"/><path fill="#055134" d="M 16.742188 0.00390625 L 14.347656 0.00390625 L 33.910156 51.40625 Z M 16.742188 0.00390625 " fill-opacity="1" fill-rule="nonzero"/><path fill="#055134" d="M 0.00390625 4.632812 L 0.00390625 8.953125 L 30.3125 55.863281 Z M 0.00390625 4.632812 " fill-opacity="1" fill-rule="nonzero"/><path fill="#055134" d="M 0.00390625 34.386719 L 0.00390625 37.453125 L 27.554688 61.675781 Z M 0.00390625 34.386719 " fill-opacity="1" fill-rule="nonzero"/><path fill="#055134" d="M 0.00390625 56.035156 L 0.00390625 58.449219 L 25.820312 68.445312 Z M 0.00390625 56.035156 " fill-opacity="1" fill-rule="nonzero"/><g clip-path="url(#912a5b956d)"><path fill="#055134" d="M 85.175781 67.765625 L 85.175781 65.507812 L 59.800781 72.046875 Z M 85.175781 67.765625 " fill-opacity="1" fill-rule="nonzero"/></g><g clip-path="url(#e3a0fa8b26)"><path fill="#055134" d="M 85.175781 48.5 L 85.175781 45.820312 L 58.628906 64.96875 Z M 85.175781 48.5 " fill-opacity="1" fill-rule="nonzero"/></g><g clip-path="url(#bf02f1b665)"><path fill="#055134" d="M 85.175781 24.625 L 85.175781 21.027344 L 56.363281 58.625 Z M 85.175781 24.625 " fill-opacity="1" fill-rule="nonzero"/></g><path fill="#055134" d="M 79.789062 0.00390625 L 77.277344 0.00390625 L 53.15625 53.445312 Z M 79.789062 0.00390625 " fill-opacity="1" fill-rule="nonzero"/><path fill="#055134" d="M 63.152344 0.00390625 L 60.832031 0.00390625 L 49.234375 49.78125 Z M 63.152344 0.00390625 " fill-opacity="1" fill-rule="nonzero"/><path fill="#055134" d="M 49.875 0.00390625 L 47.636719 0.00390625 L 44.855469 47.882812 Z M 49.875 0.00390625 " fill-opacity="1" fill-rule="nonzero"/><path fill="#055134" d="M 37.542969 0.00390625 L 35.300781 0.00390625 L 40.324219 47.882812 Z M 37.542969 0.00390625 " fill-opacity="1" fill-rule="nonzero"/><path fill="#055134" d="M 24.34375 0.00390625 L 22.027344 0.00390625 L 35.945312 49.78125 Z M 24.34375 0.00390625 " fill-opacity="1" fill-rule="nonzero"/><path fill="#055134" d="M 7.898438 0.00390625 L 5.390625 0.00390625 L 32.019531 53.445312 Z M 7.898438 0.00390625 " fill-opacity="1" fill-rule="nonzero"/><path fill="#055134" d="M 0.00390625 21.027344 L 0.00390625 24.625 L 28.816406 58.625 Z M 0.00390625 21.027344 " fill-opacity="1" fill-rule="nonzero"/><path fill="#055134" d="M 0.00390625 45.820312 L 0.00390625 48.5 L 26.550781 64.96875 Z M 0.00390625 45.820312 " fill-opacity="1" fill-rule="nonzero"/><g clip-path="url(#4710ed450d)"><path fill="#055134" d="M 0.00390625 65.507812 L 0.00390625 67.765625 L 25.378906 72.046875 Z M 0.00390625 65.507812 " fill-opacity="1" fill-rule="nonzero"/></g></g></g></g><g mask="url(#1d06b0efb1)"><g transform="matrix(1, 0, 0, 1, 84, -0.000000000000001479)"><g clip-path="url(#c0f17cb444)"><g clip-path="url(#3d8f543d82)"><path fill="#055134" d="M 86.355469 58.449219 L 86.355469 56.035156 L 60.539062 68.445312 Z M 86.355469 58.449219 " fill-opacity="1" fill-rule="nonzero"/></g><g clip-path="url(#5a25e2b0bf)"><path fill="#055134" d="M 86.355469 37.453125 L 86.355469 34.386719 L 58.804688 61.675781 Z M 86.355469 37.453125 " fill-opacity="1" fill-rule="nonzero"/></g><g clip-path="url(#2a28c99c55)"><path fill="#055134" d="M 86.355469 8.953125 L 86.355469 4.632812 L 56.042969 55.863281 Z M 86.355469 8.953125 " fill-opacity="1" fill-rule="nonzero"/></g><path fill="#055134" d="M 72.011719 0.00390625 L 69.617188 0.00390625 L 52.449219 51.40625 Z M 72.011719 0.00390625 " fill-opacity="1" fill-rule="nonzero"/><path fill="#055134" d="M 57.457031 0.00390625 L 55.1875 0.00390625 L 48.261719 48.601562 Z M 57.457031 0.00390625 " fill-opacity="1" fill-rule="nonzero"/><path fill="#055134" d="M 44.882812 0.00390625 L 42.652344 0.00390625 L 43.769531 47.644531 Z M 44.882812 0.00390625 " fill-opacity="1" fill-rule="nonzero"/><path fill="#055134" d="M 32.351562 0.00390625 L 30.082031 0.00390625 L 39.277344 48.601562 Z M 32.351562 0.00390625 " fill-opacity="1" fill-rule="nonzero"/><path fill="#055134" d="M 17.921875 0.00390625 L 15.527344 0.00390625 L 35.089844 51.40625 Z M 17.921875 0.00390625 " fill-opacity="1" fill-rule="nonzero"/><path fill="#055134" d="M 1.183594 4.632812 L 1.183594 8.953125 L 31.492188 55.863281 Z M 1.183594 4.632812 " fill-opacity="1" fill-rule="nonzero"/><path fill="#055134" d="M 1.183594 34.386719 L 1.183594 37.453125 L 28.734375 61.675781 Z M 1.183594 34.386719 " fill-opacity="1" fill-rule="nonzero"/><path fill="#055134" d="M 1.183594 56.035156 L 1.183594 58.449219 L 27 68.445312 Z M 1.183594 56.035156 " fill-opacity="1" fill-rule="nonzero"/><g clip-path="url(#3f1d557244)"><path fill="#055134" d="M 86.355469 67.765625 L 86.355469 65.507812 L 60.980469 72.046875 Z M 86.355469 67.765625 " fill-opacity="1" fill-rule="nonzero"/></g><g clip-path="url(#085af69aad)"><path fill="#055134" d="M 86.355469 48.5 L 86.355469 45.820312 L 59.808594 64.96875 Z M 86.355469 48.5 " fill-opacity="1" fill-rule="nonzero"/></g><g clip-path="url(#3d444d768e)"><path fill="#055134" d="M 86.355469 24.625 L 86.355469 21.027344 L 57.542969 58.625 Z M 86.355469 24.625 " fill-opacity="1" fill-rule="nonzero"/></g><path fill="#055134" d="M 80.96875 0.00390625 L 78.457031 0.00390625 L 54.335938 53.445312 Z M 80.96875 0.00390625 " fill-opacity="1" fill-rule="nonzero"/><path fill="#055134" d="M 64.332031 0.00390625 L 62.015625 0.00390625 L 50.414062 49.78125 Z M 64.332031 0.00390625 " fill-opacity="1" fill-rule="nonzero"/><path fill="#055134" d="M 51.054688 0.00390625 L 48.816406 0.00390625 L 46.035156 47.882812 Z M 51.054688 0.00390625 " fill-opacity="1" fill-rule="nonzero"/><path fill="#055134" d="M 38.722656 0.00390625 L 36.484375 0.00390625 L 41.503906 47.882812 Z M 38.722656 0.00390625 " fill-opacity="1" fill-rule="nonzero"/><path fill="#055134" d="M 25.523438 0.00390625 L 23.207031 0.00390625 L 37.125 49.78125 Z M 25.523438 0.00390625 " fill-opacity="1" fill-rule="nonzero"/><path fill="#055134" d="M 9.082031 0.00390625 L 6.570312 0.00390625 L 33.203125 53.445312 Z M 9.082031 0.00390625 " fill-opacity="1" fill-rule="nonzero"/><path fill="#055134" d="M 1.183594 21.027344 L 1.183594 24.625 L 29.996094 58.625 Z M 1.183594 21.027344 " fill-opacity="1" fill-rule="nonzero"/><path fill="#055134" d="M 1.183594 45.820312 L 1.183594 48.5 L 27.730469 64.96875 Z M 1.183594 45.820312 " fill-opacity="1" fill-rule="nonzero"/><g clip-path="url(#18b5b2dd53)"><path fill="#055134" d="M 1.183594 65.507812 L 1.183594 67.765625 L 26.558594 72.046875 Z M 1.183594 65.507812 " fill-opacity="1" fill-rule="nonzero"/></g></g></g></g><g mask="url(#94b4fdbcf9)"><g transform="matrix(1, 0, 0, 1, 170, -0.000000000000001479)"><g clip-path="url(#fc7bda9015)"><g clip-path="url(#6159c0fa5e)"><path fill="#055134" d="M 85.535156 58.449219 L 85.535156 56.035156 L 59.71875 68.445312 Z M 85.535156 58.449219 " fill-opacity="1" fill-rule="nonzero"/></g><g clip-path="url(#7169019c8b)"><path fill="#055134" d="M 85.535156 37.453125 L 85.535156 34.386719 L 57.984375 61.675781 Z M 85.535156 37.453125 " fill-opacity="1" fill-rule="nonzero"/></g><g clip-path="url(#3a8da6399b)"><path fill="#055134" d="M 85.535156 8.953125 L 85.535156 4.632812 L 55.226562 55.863281 Z M 85.535156 8.953125 " fill-opacity="1" fill-rule="nonzero"/></g><path fill="#055134" d="M 71.191406 0.00390625 L 68.796875 0.00390625 L 51.628906 51.40625 Z M 71.191406 0.00390625 " fill-opacity="1" fill-rule="nonzero"/><path fill="#055134" d="M 56.636719 0.00390625 L 54.367188 0.00390625 L 47.441406 48.601562 Z M 56.636719 0.00390625 " fill-opacity="1" fill-rule="nonzero"/><path fill="#055134" d="M 44.066406 0.00390625 L 41.835938 0.00390625 L 42.949219 47.644531 Z M 44.066406 0.00390625 " fill-opacity="1" fill-rule="nonzero"/><path fill="#055134" d="M 31.53125 0.00390625 L 29.261719 0.00390625 L 38.457031 48.601562 Z M 31.53125 0.00390625 " fill-opacity="1" fill-rule="nonzero"/><path fill="#055134" d="M 17.101562 0.00390625 L 14.707031 0.00390625 L 34.269531 51.40625 Z M 17.101562 0.00390625 " fill-opacity="1" fill-rule="nonzero"/><g clip-path="url(#b3fb1ac3e6)"><path fill="#055134" d="M 0.363281 4.632812 L 0.363281 8.953125 L 30.675781 55.863281 Z M 0.363281 4.632812 " fill-opacity="1" fill-rule="nonzero"/></g><g clip-path="url(#9cc80f8dcd)"><path fill="#055134" d="M 0.363281 34.386719 L 0.363281 37.453125 L 27.914062 61.675781 Z M 0.363281 34.386719 " fill-opacity="1" fill-rule="nonzero"/></g><g clip-path="url(#e7d56a29ba)"><path fill="#055134" d="M 0.363281 56.035156 L 0.363281 58.449219 L 26.179688 68.445312 Z M 0.363281 56.035156 " fill-opacity="1" fill-rule="nonzero"/></g><g clip-path="url(#65ae47b769)"><path fill="#055134" d="M 85.535156 67.765625 L 85.535156 65.507812 L 60.160156 72.046875 Z M 85.535156 67.765625 " fill-opacity="1" fill-rule="nonzero"/></g><g clip-path="url(#cf334ce3f2)"><path fill="#055134" d="M 85.535156 48.5 L 85.535156 45.820312 L 58.988281 64.96875 Z M 85.535156 48.5 " fill-opacity="1" fill-rule="nonzero"/></g><g clip-path="url(#34de82224a)"><path fill="#055134" d="M 85.535156 24.625 L 85.535156 21.027344 L 56.722656 58.625 Z M 85.535156 24.625 " fill-opacity="1" fill-rule="nonzero"/></g><path fill="#055134" d="M 80.148438 0.00390625 L 77.636719 0.00390625 L 53.519531 53.445312 Z M 80.148438 0.00390625 " fill-opacity="1" fill-rule="nonzero"/><path fill="#055134" d="M 63.511719 0.00390625 L 61.195312 0.00390625 L 49.59375 49.78125 Z M 63.511719 0.00390625 " fill-opacity="1" fill-rule="nonzero"/><path fill="#055134" d="M 50.238281 0.00390625 L 47.996094 0.00390625 L 45.214844 47.882812 Z M 50.238281 0.00390625 " fill-opacity="1" fill-rule="nonzero"/><path fill="#055134" d="M 37.902344 0.00390625 L 35.664062 0.00390625 L 40.683594 47.882812 Z M 37.902344 0.00390625 " fill-opacity="1" fill-rule="nonzero"/><path fill="#055134" d="M 24.703125 0.00390625 L 22.386719 0.00390625 L 36.304688 49.78125 Z M 24.703125 0.00390625 " fill-opacity="1" fill-rule="nonzero"/><path fill="#055134" d="M 8.261719 0.00390625 L 5.75 0.00390625 L 32.382812 53.445312 Z M 8.261719 0.00390625 " fill-opacity="1" fill-rule="nonzero"/><g clip-path="url(#ff924b1f23)"><path fill="#055134" d="M 0.363281 21.027344 L 0.363281 24.625 L 29.175781 58.625 Z M 0.363281 21.027344 " fill-opacity="1" fill-rule="nonzero"/></g><g clip-path="url(#b20d16fe5a)"><path fill="#055134" d="M 0.363281 45.820312 L 0.363281 48.5 L 26.910156 64.96875 Z M 0.363281 45.820312 " fill-opacity="1" fill-rule="nonzero"/></g><g clip-path="url(#c666c03140)"><path fill="#055134" d="M 0.363281 65.507812 L 0.363281 67.765625 L 25.738281 72.046875 Z M 0.363281 65.507812 " fill-opacity="1" fill-rule="nonzero"/></g></g></g></g><g mask="url(#1238620b19)"><g transform="matrix(1, 0, 0, 1, 255, -0.000000000000001479)"><g clip-path="url(#761b02d379)"><g clip-path="url(#2fa87286f4)"><path fill="#055134" d="M 31.710938 0.00390625 L 29.445312 0.00390625 L 38.636719 48.601562 Z M 31.710938 0.00390625 " fill-opacity="1" fill-rule="nonzero"/></g><g clip-path="url(#480c049f51)"><path fill="#055134" d="M 17.28125 0.00390625 L 14.886719 0.00390625 L 34.449219 51.40625 Z M 17.28125 0.00390625 " fill-opacity="1" fill-rule="nonzero"/></g><g clip-path="url(#be4e03578a)"><path fill="#055134" d="M 0.542969 4.632812 L 0.542969 8.953125 L 30.855469 55.863281 Z M 0.542969 4.632812 " fill-opacity="1" fill-rule="nonzero"/></g><g clip-path="url(#a7ada80aa8)"><path fill="#055134" d="M 0.542969 34.386719 L 0.542969 37.453125 L 28.097656 61.675781 Z M 0.542969 34.386719 " fill-opacity="1" fill-rule="nonzero"/></g><g clip-path="url(#91e4a79f70)"><path fill="#055134" d="M 0.542969 56.035156 L 0.542969 58.449219 L 26.363281 68.445312 Z M 0.542969 56.035156 " fill-opacity="1" fill-rule="nonzero"/></g><g clip-path="url(#bba3a5f760)"><path fill="#055134" d="M 24.886719 0.00390625 L 22.566406 0.00390625 L 36.488281 49.78125 Z M 24.886719 0.00390625 " fill-opacity="1" fill-rule="nonzero"/></g><g clip-path="url(#f3771b32ad)"><path fill="#055134" d="M 8.441406 0.00390625 L 5.929688 0.00390625 L 32.5625 53.445312 Z M 8.441406 0.00390625 " fill-opacity="1" fill-rule="nonzero"/></g><g clip-path="url(#383feba062)"><path fill="#055134" d="M 0.542969 21.027344 L 0.542969 24.625 L 29.355469 58.625 Z M 0.542969 21.027344 " fill-opacity="1" fill-rule="nonzero"/></g><g clip-path="url(#312a777f4a)"><path fill="#055134" d="M 0.542969 45.820312 L 0.542969 48.5 L 27.089844 64.96875 Z M 0.542969 45.820312 " fill-opacity="1" fill-rule="nonzero"/></g><g clip-path="url(#1a187da801)"><path fill="#055134" d="M 0.542969 65.507812 L 0.542969 67.765625 L 25.917969 72.046875 Z M 0.542969 65.507812 " fill-opacity="1" fill-rule="nonzero"/></g></g></g></g></svg>